/* XPM */
static char *b2c1e8fcd915485ca49de83bf4ccde4b53XJlXAGDPB3DbhK[] = {
/* columns rows colors chars-per-pixel */
"64 64 115 2 ",
"   c #38362A",
".  c #3B392D",
"X  c #343936",
"o  c #3D3C32",
"O  c #3A3D39",
"+  c #453723",
"@  c #463823",
"#  c #443E2F",
"$  c #413E33",
"%  c #3D413C",
"&  c #574227",
"*  c #584327",
"=  c #5C4628",
"-  c #5A482F",
";  c #454237",
":  c #454338",
">  c #49473D",
",  c #4C493D",
"<  c #564A35",
"1  c #514B3B",
"2  c #634A2A",
"3  c #6C4F2C",
"4  c #6D502C",
"5  c #76552E",
"6  c #7E5B30",
"7  c #424641",
"8  c #454A44",
"9  c #4B4C44",
"0  c #474C48",
"q  c #4A4F4B",
"w  c #4C514D",
"e  c #535046",
"r  c #53544C",
"t  c #4D5452",
"y  c #525651",
"u  c #555A55",
"i  c #585D57",
"p  c #575F5F",
"a  c #595F5C",
"s  c #5D625D",
"d  c #60645F",
"f  c #585F60",
"g  c #616661",
"h  c #656A65",
"j  c #646C6D",
"k  c #6B6E69",
"l  c #6D726D",
"z  c #75756E",
"x  c #717671",
"c  c #757A75",
"v  c #7A7A73",
"b  c #777C78",
"n  c #757E7F",
"m  c #787C78",
"M  c #787D78",
"N  c #797E78",
"B  c #797E79",
"V  c #7A7F7A",
"C  c #815C30",
"Z  c #805C31",
"A  c #825D31",
"S  c #825D31",
"D  c #7B807A",
"F  c #7B807B",
"G  c #7C817B",
"H  c #7C817C",
"J  c #7D827C",
"K  c #7D827D",
"L  c #7E837D",
"P  c #7E837E",
"I  c #7F847F",
"U  c #7E847F",
"Y  c #85847D",
"T  c #84847E",
"R  c #778183",
"E  c #7F8580",
"W  c #7E898B",
"Q  c #808580",
"!  c #818680",
"~  c #818681",
"^  c #828883",
"/  c #878D87",
"(  c #828883",
")  c #97958E",
"_  c #8A9699",
"`  c #8A9699",
"'  c #969C96",
"]  c #969D96",
"[  c #979D97",
"{  c #9BA19A",
"}  c #9BA19B",
"|  c #9BA29B",
" . c #9CA29B",
".. c #9CA29C",
"X. c #9BA29B",
"o. c #A2A098",
"O. c #A6ADA6",
"+. c #A6ADA7",
"@. c #A7AEA7",
"#. c #A6ADA7",
"$. c #A8AFA8",
"%. c #ABB2AB",
"&. c #ACB2AB",
"*. c #ACB2AC",
"=. c #ACB3AC",
"-. c #ACB3AC",
";. c #B3B1A8",
":. c #BDB9B0",
">. c #CFCBC1",
",. c #CFCBC1",
"<. c #D0CBC1",
"1. c #D0CBC2",
"2. c #D0CCC2",
"3. c #D1CCC2",
"4. c #D1CCC2",
/* pixels */
"3.3.3.3.3.3.3.3.3.3.3.3.3.3.3.1.1.3.3.3.3.3.1.3.1.1.3.3.3.3.1.3.1.3.3.3.3.3.3.3.1.3.3.3.3.3.3.1.1.3.1.3.3.3.3.3.3.3.3.1.3.3.3.3.",
"3.3.3.3.1.3.3.3.3.3.3.3.3.3.>.>.1.3.3.3.1.3.3.1.3.3.1.3.1.1.3.3.3.1.3.3.3.3.3.3.3.1.3.1.3.1.3.1.1.1.3.3.3.3.3.3.3.3.3.1.3.3.3.3.",
"1.3.3.3.3.3.3.3.3.3.3.3.1.>.1.>.1.3.1.1.1.1.1.3.1.1.1.>.1.1.1.1.3.3.3.1.1.1.3.3.1.1.1.1.1.1.1.>.1.>.3.3.3.3.3.3.1.3.3.3.3.3.3.1.",
"3.3.3.3.3.3.3.3.3.1.3.3.1.:.T T T T T T T T T T T T T T T T T T T T T T T T T T T T T T T T T T T ;.3.1.3.3.1.1.1.3.3.3.3.1.3.3.",
"1.1.1.3.3.1.1.3.1.3.3.3.1.v / ' ' ' ' ' ' ' ' ' ' ' ' ' ' ' ' ' ' ' ' ' ' ' ' ' ' ' ' ' ' ' ' ' ' z 1.1.1.1.1.1.1.3.1.3.3.3.3.3.",
"1.1.1.1.1.3.1.1.3.1.1.1.1.v ..=.=.=.=.=.=.=.=.=.=.=.=.=.=.=.=.=.=.=.=.=.=.=.=.=.&.=.=.=.=.=.=.=.=.z 3.>.3.3.1.1.1.1.3.3.3.1.1.3.",
"3.1.1.1.1.1.3.3.3.1.3.3.3.v | =.9 < < < < < < < < < < < < < < < < < < < < < < < < < < < < < o $.=.z 1.3.1.1.3.1.1.1.3.3.1.3.3.3.",
"3.1.1.1.1.1.3.3.3.1.3.3.3.v | =.9 < < < < < < < < < < < < < < < < < < < < < < < < < < < < < o $.=.z 1.3.1.1.3.1.1.1.3.3.1.3.3.3.",
"3.1.3.3.3.3.3.3.3.3.3.3.1.v | =.< A A A A A A A A A A A A A A A A A A A A A A A A A A A A A @ +.=.z 3.1.3.3.3.3.1.3.3.3.1.3.1.3.",
"3.3.1.3.3.3.3.1.3.3.3.3.3.v | =.< A A A A A A A A A A A A A A A A A A A A A A A A A A A A A + +.=.z 1.1.3.3.1.1.3.3.3.3.1.3.3.3.",
"3.3.3.1.3.3.1.3.3.3.3.3.3.v | =.< A A A A 2 = = = = = = = = = = = = = = = = = = = = A A A A @ +.=.z 1.3.1.1.1.3.1.3.3.3.3.3.3.3.",
"3.3.3.1.3.3.3.3.3.3.3.3.3.v | =.< A A A A ; s i y y u u y g w h y g u y s r g g u % 5 A A A @ +.=.z 1.1.3.3.3.1.3.3.3.3.3.3.3.3.",
"3.3.3.3.3.3.3.1.3.3.3.3.3.v | =.< A A A A e i k g g g g s k g k h g g s h g k k g 7 5 A A A @ +.=.z 3.3.3.3.3.3.1.3.3.3.3.3.3.3.",
"3.3.1.3.3.3.3.3.3.3.1.1.1.v | =.< A A A A . b s k k g s l u M i l g s l s x i i l 8 5 A A A @ +.=.z 1.1.3.3.1.1.3.1.3.3.1.3.3.3.",
"1.1.3.1.3.3.3.1.1.3.1.1.1.v | =.< A A A A e u x s s h l y H w H s h l i H y c c i 7 5 A A A + +.=.z 1.3.3.3.3.1.3.3.3.3.1.3.3.3.",
"1.1.3.3.3.3.3.1.1.3.3.3.3.v | =.< A A A A $ c i l l h s H 0 Q y x g s H 0 H i i l w 5 A A A @ +.=.z 1.3.3.3.3.1.3.1.3.3.3.3.1.3.",
"3.3.3.3.3.3.3.3.3.1.3.3.3.v | =.< A A A A , i x g g h x u H w c s h b w I w c c s O 5 A A A @ +.=.z 1.3.3.3.3.3.1.1.3.3.1.3.3.3.",
"3.3.3.3.3.3.3.3.1.3.1.1.3.v | =.< A A A A : k g h h h s x s c s k k s N u c i i l u 5 A A A + +.%.z 3.3.1.1.1.3.3.3.3.3.3.3.3.3.",
"3.3.3.3.1.3.3.3.3.3.3.3.3.v | =.< A A A A ; x g g g g g h h g k g g l s x s l l d 7 5 A A A + +.&.z 3.3.3.3.3.1.3.3.3.3.3.3.1.3.",
"3.1.1.1.3.3.3.3.1.1.1.1.3.v | =.< A A A A e y x s s d l i c s l d d k h h k g g h w 5 A A A @ +.=.z 1.1.1.1.1.3.3.3.3.3.3.3.3.1.",
"3.3.3.1.3.1.1.3.3.3.1.1.1.v | =.< A A A A   G i l l l u G w G i h l i c s l g g d 8 5 A A A @ +.=.z 1.3.3.3.3.3.1.1.3.3.3.3.3.3.",
"3.3.3.1.3.1.1.3.3.3.1.1.1.v | =.< A A A A   G i l l l u G w G i h l i c s l g g d 8 5 A A A @ +.=.z 1.3.3.3.3.3.1.1.3.3.3.3.3.3.",
"3.1.3.3.1.3.3.3.3.1.1.1.1.v | =.< A A A A e q N s s g D q Q w c d s H w D i l l g 8 5 A A A + +.%.z 1.3.1.1.1.3.1.3.3.3.3.3.1.3.",
"3.3.3.3.1.3.1.1.3.3.3.3.>.v | =.< A A A A $ b s k k l i G w N s l b w Q q b s s h w 5 A A A @ +.=.z 1.1.1.1.1.1.3.3.3.1.3.1.1.1.",
"3.3.3.3.3.3.3.1.3.3.1.1.>.v | &.< A A A A 9 g h d d g l s x s l h s c y H y x x s % 5 A A A @ +.=.z >.1.3.3.3.1.3.3.3.3.3.3.3.3.",
"3.3.3.1.1.3.3.3.3.3.3.3.3.v | =.< A A A A , g g g g s h h h h s d h s x i N i i k y 5 A A A @ +.%.z 1.3.3.3.3.3.3.3.3.1.3.1.1.3.",
"3.3.1.3.1.3.3.1.3.3.3.3.1.v | =.< A A A A $ c s g g l i c i l s s h g s l s l l d % 5 A A A + +.%.z >.3.1.1.1.1.1.3.3.3.3.3.3.3.",
"3.3.3.3.1.3.3.3.3.1.3.3.1.v | =.< A A A A e u l h h i H q H i k h i l s k h g g h y 5 A A A @ +.=.z 1.3.1.1.3.1.3.3.3.3.3.3.3.3.",
"1.3.1.3.3.3.3.3.3.1.1.1.1.v | =.< A A A A . b s h h D q Q w c s g c w G u c g g g 7 5 A A A @ +.&.z 1.1.1.1.1.1.3.3.3.3.1.3.3.1.",
"3.3.3.1.3.1.1.3.3.3.1.1.3.v  .=.< A A A A e s k l l i N w b i l x u H 0 H u l l s 7 5 A A A @ +.=.z >.1.3.3.3.1.1.1.3.1.3.3.3.3.",
"3.3.3.1.3.3.3.3.3.1.1.1.1.v | =.< A A A A > k h s s l i x s l g g c y I w N i i k y 5 A A A @ +.%.z 1.1.1.1.3.3.3.3.3.1.3.3.1.3.",
"3.1.3.1.3.1.3.1.1.1.1.1.1.v | =.< A A A A , h g g g h k h k g g g s x i N i x x g O 5 A A A @ +.=.z 3.3.3.3.1.1.1.3.3.3.1.3.3.3.",
"1.3.3.3.3.3.3.3.3.3.1.1.1.v | =.< A A A A 2 & & & & & & & & & & & & & & & & & & & * 6 A A A + +.=.z 3.3.3.3.3.3.3.3.3.3.3.1.3.3.",
"3.3.1.3.1.3.3.3.3.3.3.3.1.v | =.< A A A A A A A A A A A A A A A A A A A A A A A A A A A A A @ +.=.z >.3.1.1.3.3.1.3.3.3.1.3.3.3.",
"3.3.1.3.1.3.3.3.3.3.3.3.1.v | =.< A A A A A A A A A A A A A A A A A A A A A A A A A A A A A @ +.=.z >.3.1.1.3.3.1.3.3.3.1.3.3.3.",
"3.3.3.1.3.3.3.3.3.3.1.1.1.v | =.< A A A A A A A A A A A A A A A A A A A A A A A A 4 = = = 5 @ +.=.z 1.3.3.3.3.3.3.3.3.1.1.3.3.3.",
"3.1.3.1.3.1.3.1.1.3.1.1.3.v | =.< A A A A A A A A A A A A A A A A A A A A A A A A , c c c - + +.=.z 1.1.3.3.1.3.3.3.3.3.1.3.3.3.",
"3.3.3.3.3.3.3.3.3.3.1.1.1.v | =.< A A A A A A A A A A A A A A A A A A A A A A A A 1 i g ^ - + +.=.z 1.3.3.3.3.3.1.3.3.3.1.1.1.3.",
"3.1.1.3.3.3.1.3.3.3.1.1.1.v | =.< A A A A A A A A A A A A A A A A A A A A A A A A 9 W n u - + +.=.z 3.1.3.3.1.3.3.1.3.3.1.3.3.1.",
"3.3.3.3.3.3.3.3.3.3.1.1.1.v | =.< A A A A A A A A A A A A A A A A A A A A A A A 2 R _ _ t - + +.=.z 1.1.1.1.3.3.1.3.3.1.3.3.1.3.",
"1.1.3.3.3.3.3.3.1.3.3.3.1.v ..=.< A A A A A A A A A A A A A A A A A A A A A A A 5 j _ _ t - @ +.=.z 1.1.3.3.1.1.1.3.3.3.3.3.3.3.",
"3.3.3.1.1.3.3.3.3.3.3.3.3.v | =.< A A A A A A A A A A A A A A A A A A A A A A A A # u y c - @ +.%.z >.3.1.1.3.3.1.3.3.3.3.1.3.3.",
"3.3.3.3.3.3.1.3.3.3.1.1.1.v | =.< A A A A A A A A A A A A A A A A A A A A A A A A 1 ^ ^ ^ - + +.%.z >.1.1.1.1.3.1.3.3.1.3.3.1.3.",
"1.3.3.3.3.3.3.3.3.3.3.3.1.v | =.< A A A A A A A A A A A A A A A A A A A A A A A A 1 E E I - @ +.=.z 3.1.1.1.1.3.3.3.3.3.3.3.3.3.",
"1.3.1.3.3.1.3.3.3.3.3.3.1.v | =.< A A A A A A A A A A A A A A A A A A A A A A A A 3 = = = 5 + +.=.z 1.3.1.1.3.3.3.1.3.1.3.1.1.1.",
"3.3.1.3.1.3.1.3.3.1.3.3.3.v  .=.< A A A A A A A A A A A A A A A A A A A A A A A A A A A A A @ +.=.z 1.3.3.3.3.3.1.3.1.3.3.3.3.3.",
"1.3.1.3.3.3.3.3.3.1.1.1.1.v | =.< A A A A A A A A A A A A A A A A A A A A A A A A A A A A A @ +.=.z 1.1.3.3.3.3.3.3.3.3.1.3.3.3.",
"3.3.1.3.3.3.3.3.3.3.1.1.3.v | =.< A A A A A A A A A A A A A A A A A A A A A A A A A A A A A + +.=.z 3.3.1.1.3.3.3.3.3.1.3.3.3.3.",
"3.3.1.3.3.3.3.3.3.3.1.1.3.v | =.< A A A A A A A A A A A A A A A A A A A A A A A A A A A A A + +.=.z 3.3.1.1.3.3.3.3.3.1.3.3.3.3.",
"3.3.3.1.1.3.3.3.3.3.3.3.1.v | =.< A A A A A A A A A A A A A A A A A A A A A A A A A A A A A @ +.=.z 1.3.1.1.1.3.3.3.3.3.3.3.1.3.",
"3.3.3.3.3.3.3.3.3.3.3.3.1.v | =.< A A A A A A A A A A A A A A A A A A A A A A A A A A A A A + +.=.z 1.1.1.1.3.3.3.3.3.3.3.1.1.3.",
"3.3.3.3.3.3.3.1.3.3.3.3.1.v  .=.< A A A A A A A A A A A A A A A A A A A A A A A A A A A A A + +.=.z 1.1.1.1.3.3.3.3.3.3.3.3.3.3.",
"3.3.3.3.1.3.3.3.3.3.3.3.3.v | =.< A A A A A A A A A A A A A A A A A A A A A A A A A A A A A + +.=.z 1.3.1.1.1.3.3.1.3.1.3.3.1.3.",
"3.3.3.3.3.3.3.3.1.3.3.3.3.v | =.< A A A A A A A A A A A A A A A A A A A A A A A A A A A A A + +.=.z 1.1.3.3.3.3.1.1.3.3.3.3.3.3.",
"3.3.3.3.3.3.3.3.3.3.1.1.1.v | =.< S S S S S A S S S S S S S S S S S S A S S S S S S S S S S @ +.=.z 1.3.1.1.3.1.1.3.3.3.3.1.3.3.",
"1.3.1.1.3.1.3.3.3.3.3.3.3.v | =.0 p p p p p p p p p p p p p p p p f p p p p p p p p p p p p X +.=.z 3.3.1.1.3.1.3.3.3.3.1.3.3.3.",
"3.3.3.3.3.3.3.3.1.1.3.3.3.v | %.p _ _ _ _ _ _ _ _ _ _ _ _ _ _ _ _ _ _ _ _ _ _ _ _ _ _ _ _ _ q +.%.z 1.>.3.3.1.1.3.3.3.3.3.1.3.3.",
"3.3.1.3.3.3.1.3.1.3.3.3.1.v | %.p _ _ _ _ _ _ _ _ _ _ _ _ _ _ _ _ _ _ _ _ _ _ _ _ _ _ _ _ _ q +.=.z 3.1.>.>.3.3.1.3.1.3.3.3.3.3.",
"3.3.3.3.1.3.1.3.1.1.3.3.3.v | %.p _ _ _ _ _ _ _ _ _ _ _ _ _ _ _ _ _ _ _ _ _ _ _ _ _ _ _ _ _ w +.%.z 3.1.1.1.1.3.3.1.3.3.3.1.3.3.",
"3.3.3.3.3.3.3.3.3.3.3.3.3.v | =.p _ _ _ _ _ _ _ _ _ _ _ _ _ _ _ _ _ _ _ _ _ _ _ _ _ _ _ _ _ w +.%.z 3.3.3.3.3.3.3.3.3.3.3.3.3.3.",
"3.3.3.1.3.1.1.3.1.1.1.1.1.v | =.p _ _ _ _ _ _ _ _ _ _ _ _ _ _ _ _ _ _ _ _ _ _ _ _ _ _ _ _ _ w +.&.z 1.3.3.3.1.3.3.3.3.3.3.3.3.3.",
"3.1.1.3.1.1.3.1.3.1.1.1.3.v | =.p _ _ _ _ _ _ _ _ _ _ _ _ _ _ _ _ _ _ _ _ _ _ _ _ _ _ _ _ _ w +.%.z 1.3.3.3.1.3.1.1.3.3.3.1.1.3.",
"3.1.1.3.1.1.3.1.3.1.1.1.3.v | =.p _ _ _ _ _ _ _ _ _ _ _ _ _ _ _ _ _ _ _ _ _ _ _ _ _ _ _ _ _ w +.%.z 1.3.3.3.1.3.1.1.3.3.3.1.1.3.",
"3.3.3.3.3.3.3.3.3.3.3.3.1.o.l z h k k k k k k k k k k k k k k k k k k k k k k k k k k k k k d z z ) 3.3.1.1.3.3.3.1.3.3.3.3.3.3."
};
