/* XPM */
static char *_0d0f8698f244fbaaa2a81ff76540fd8SqOtccOHc4B5wkLE[] = {
/* columns rows colors chars-per-pixel */
"64 64 190 2 ",
"   c #001E24",
".  c #002425",
"X  c #00252B",
"o  c #012A2D",
"O  c #0B2F2F",
"+  c #0B2A24",
"@  c #15262D",
"#  c #1D272B",
"$  c #16292E",
"%  c #1C2A2E",
"&  c #012E33",
"*  c #1C2C32",
"=  c #023234",
"-  c #0A3335",
";  c #02343A",
":  c #0D363A",
">  c #053A3D",
",  c #0A3A3D",
"<  c #113536",
"1  c #1D3136",
"2  c #14363B",
"3  c #143C3C",
"4  c #1B3E3D",
"5  c #212B2E",
"6  c #222D32",
"7  c #223035",
"8  c #21343A",
"9  c #1F423E",
"0  c #073942",
"q  c #0C3D42",
"w  c #133E42",
"e  c #193C42",
"r  c #0D4245",
"t  c #0E4049",
"y  c #0F494A",
"u  c #144244",
"i  c #1B4245",
"p  c #1D4845",
"a  c #13454B",
"s  c #1D464A",
"d  c #16494E",
"f  c #1C4A4C",
"g  c #1C4E52",
"h  c #134D51",
"j  c #175154",
"k  c #1B5354",
"l  c #1A5857",
"z  c #214342",
"x  c #214845",
"c  c #22464C",
"v  c #234B4D",
"b  c #294D4D",
"n  c #26504E",
"m  c #274E53",
"M  c #294F52",
"N  c #225254",
"B  c #2B5454",
"V  c #255957",
"C  c #25575A",
"Z  c #2D565A",
"A  c #235B5C",
"S  c #2B5B5B",
"D  c #375756",
"F  c #325559",
"G  c #345C5C",
"H  c #3A5C5E",
"J  c #3F5A53",
"K  c #31645F",
"L  c #3E605F",
"P  c #255C62",
"I  c #2D5E62",
"U  c #2F5F69",
"Y  c #345E61",
"T  c #3B5D62",
"R  c #2C6265",
"E  c #2E656A",
"W  c #2F696B",
"Q  c #276564",
"!  c #346265",
"~  c #3C6365",
"^  c #366867",
"/  c #386A67",
"(  c #35656A",
")  c #3C656A",
"_  c #356C6C",
"`  c #3C6B6C",
"'  c #3B706D",
"]  c #346D72",
"[  c #3C6E71",
"{  c #367274",
"}  c #3C7275",
"|  c #3D7876",
" . c #377779",
".. c #3D757A",
"X. c #3D7A7D",
"o. c #426566",
"O. c #456866",
"+. c #496964",
"@. c #426669",
"#. c #426C6D",
"$. c #496D6D",
"%. c #43716F",
"&. c #4D706C",
"*. c #5F766E",
"=. c #436D71",
"-. c #4B6E73",
";. c #447374",
":. c #4B7475",
">. c #467977",
",. c #4A7976",
"<. c #43767B",
"1. c #4C767A",
"2. c #437A7D",
"3. c #4B7B7D",
"4. c #517575",
"5. c #507975",
"6. c #54777C",
"7. c #527D7D",
"8. c #5B7D7E",
"9. c #617E79",
"0. c #3E807E",
"q. c #45817F",
"w. c #4C807E",
"e. c #53817F",
"r. c #5B827F",
"t. c #3A7782",
"y. c #3E7C81",
"u. c #477680",
"i. c #447D81",
"p. c #4B7D82",
"a. c #537E81",
"s. c #597E81",
"d. c #3F8282",
"f. c #448283",
"g. c #4B8384",
"h. c #4D8886",
"j. c #448489",
"k. c #4C8588",
"l. c #45888B",
"z. c #4C898A",
"x. c #518385",
"c. c #558184",
"v. c #528585",
"b. c #568585",
"n. c #538384",
"m. c #598583",
"M. c #5B8484",
"N. c #578885",
"B. c #548886",
"V. c #598985",
"C. c #5C8987",
"Z. c #508188",
"A. c #548689",
"S. c #548689",
"D. c #59868A",
"F. c #5A8689",
"G. c #55898A",
"H. c #598989",
"J. c #5B8A8B",
"K. c #5E908F",
"L. c #5A8F91",
"P. c #628685",
"I. c #628986",
"U. c #688987",
"Y. c #658788",
"T. c #668F8B",
"R. c #638B8B",
"E. c #6A8D8C",
"W. c #7C8F8D",
"Q. c #63918E",
"!. c #6A918E",
"~. c #70908F",
"^. c #648F92",
"/. c #6A8F94",
"(. c #639392",
"). c #6A9293",
"_. c #6E9599",
"`. c #69989E",
"'. c #74969B",
"]. c #789B9D",
"[. c #749C9E",
"{. c #739CA0",
"}. c #859694",
"|. c #899694",
" X c #859995",
".X c #899997",
"XX c #869B99",
"oX c #8B9B9A",
"OX c #8AA19E",
"+X c #8EA3A1",
/* pixels */
"U ( ( ! ! ! / ! K K S S V S N N a , r u . q 0 d k g g g f u 3 q w q d d q a q a q 0 ; ; ; ; ; & ; , a u w w u f j l l Q E [ [ =.",
"p.<.<.3.<.A.e.V.N.N.V.N.N.v.v.v.g.G.p.3.; <.3.<.2.p.2.<.3.b.a.1.3.Z.p.<.p.i.p.<.i.i.2.<.<.<.u.p.2.S.a.F.D.J.F.g.g.q.f.f.i.2.p.p.",
"<...<.3.A.J.).(.Q.m.m.n.K.J.A.3.A 2.p.g.X 3.[ ; 2.p.p.3.p.b.b.3.3.<.p.<.} ..} ..<.<.2.<.<.<.p.Z.G.S.A.D.F.F.F.A.v.g.g.X..._ } <.",
"i.2.p.3.v.b.C.7.M.m.C.V.J.w.x.A.E 2.2.<.o u.p.& 2.2.p.x.x.7.6.a.p.<.<.2...i.....<.<.<.<.2.p.p.g.k.3.J.a.a.a.x.J.g.q.f.X.X.{ <.p.",
"i...i.g.x.b.C.R.T.T.R.Q.b.n.g.S.R <.i.<.> } <.& 2.2.3.p.a.3.1.1.<.2.2.2.i.2.i...2.2.2.i.p.g.g.g.v.G.x.b.n.M.a.3.2.2...X.......2.",
"j.k.g.g.x.p m.I.r.7.:.r.C.(.G.g.} i...<.t <.<.q p.p.<.<.x.R.R.b.x.d p.<.....X.{ X.X.i.i.i.g.g.h.g.g.B C.m.a.a.1.2.2.} i.X.X...i.",
"X.l.g.p.G.u ).E.E.E.T.I.F.b.g.2...i...<.a i.<.0 <.<.<.<.b./.).^.`.r <.2.X.j.X.W i.j.g.g.g.h.S.G.G.w.G T./.T./._.3.<.<.2.i.X.i.j.",
"l.f.g.g.x.7.M.U.P.P.U.M.R.J.b.2._ ..p...t <.<.0 p.i.<.<.1.1.1.1.<.p.<.<.....2.} j.j.i.p.g.S.A.v.n.n.M.7.8.s.6.1.3.<.2.<.i...i.j.",
"d.f.g.h.b.7.P.E.P.U.Y.M.a.n.p.<.E X.<.i.q <.<.& i.i.<.<.;.;.1.1.1.2.<.<.g.i.i.2.g.2.p.g.p.G.x.R.C.I.I.8.6.6.s.6.1.1.g.;...{ 2.g.",
"f.k.k.2.;.I.E.8.E.U.4.7.:.- 3.p.P i.i.i.0 <.<.& ..i.2.<.;.3.:.=.3.<.<.2.p.k.g.2.f.g.S.g.x.J.J.M.I.B M.M.s.M.6.1.:.=.o 2.i.} k.i.",
"z.g.g.J.N m.Y.~.P.P.M.r.7.- p.;.k 2.i.p.0 <.<.& i.<.2.<.;.3.1.a.3.3.x.S.g.g.i...p.g.G.p.b.F._.I.P.z U.M.P.M.1.:.1.1.; p.2._ k.g.",
"2.h.p.b.u #.G H D L ~ 6.=.o 3.2.C p.p.p.d <.2.& i...p.E C g f C I ( } <.S.h.g.2.g.p.g.x.n.6.).E.P.z D b G B C C ( ! a <.g.2.g.i.",
"g.2.J.3.! 3 O i 4 < 4 - 3 n x.3.! p.p.3.C <.2.& 2...2.r ; ; q q , , q r 2.i.i.X.g.2.<.p.a.1.P.U.E.4 - < 3 = = = = r o g.2.| 2.z.",
"S.2.3.b.. B O.O.:.$.G G Z u 3.2.[ b.p.3.( <.3.= i...X.j C A _ ( S S A A h.g.i.2.2.2.<.1.n.M.I.M.8.z B ~ ! ^ R A A A ; p.g.g.2.2.",
"<.a.b.^.I.T.P.!.E.P.M.6.7.7.J.2.;.J.a.a.` <.2.= 2.<.f.i.k.i.p.2.g.g.g.i.g.2.X.{ X.2.p.;.C.T.U.P.E.4.M.7.:.g.g.q.g.f.2.f.X.2.| 2.",
"a.b.C.R.P.I.U.E.E.M.r.7.7.C.A.v.;.(.x.b.) 3.<.; 2.g.f.f.f.f.g.p.g.i.i.g.} 2.2.} <.2.x.` M.m.m.M.s.m.n.3.v.q.X.g.2.i.2.2.2.3.>.;.",
"x.J.C.M.P.E.E.I.r.r.7.r.7.C.b.A.3.N.3.3.) 3.p.; j.f.f.y.f.j.f.g.i.i.2.2.X.2.2.} ;.p.a.! a.x.n.x.n.n.h.z.h.f.i.i.y.y.y...3.7.&.+ ",
"v.b.C.C.I.U.U.I.I.M.C.7.m.3.a.p.^ w.3.p.[ p.p.; j.j.f.f.j.f.i.2.i.i.i.i.2.X.<.<.3.p.a.! b.b.A.x.v.h.g.g.f.f.i.y.i.t.y.i.;.#.9.*.",
"N.x.m.C.U.I.U.E.I.m.n.m.x.x.v.J.! g.v.x.<.x.3.; j.j.f.f.f.i.2.2.i.2.2.i.i.X.2.2.p.x.a.) b.J.J.v.x.g.f.f.i.X.X.y.y.y.y.i.2.` +.J ",
"b.x.n.C.I.P.I.!.!.I.n.J.x.n.p.G._ v.v.x.2.p.2.> j.i.i.i.i.i.2.2.i.2.i.i.2.2.2.<.p.A.a.=.F.^.F.x.g.g.i.2.X.X.X.y.t.j.y.{ X.3.M.4.",
"3.b.C.M.M.M.I.I.).V.N.e.G.3.g.g.| g.p.p.3.p.p.a j.i.i.2.2.i.j.g.i.g.f.2.2.2.2._ x.A.F.=.C.J.n.3.g.i.2.X.X.X.X.y. .y.y.d.f.3.3.4.",
"3.C.R.I.I.I.I.m.V.e.3.w.g.g.h.h.2.g.2.g.p.p.p.a 2.2.2.2.2.i.i.i.g.h.g.2.2.f.2.( x.b.J.) R.b.J.x.p.i.2.X.X...X.y.i.y.X.d.l.B.x.7.",
"x.J.C.C.I.T.I.C.V.N.3.h.2.h.2.f.2.f.f.g.i.2.p.q <.2.2.i.i.i.p.p.g.g.g.q.2.f.2./ g.a.C.` R.C.F.x.g.i.i.X.X...X.i.i.l.j.j.X.g.2.2.",
"b.C.m.m.M.I.I.C.J.B.v.g.h.f.g.f.X.2.i.f.<.<.p.> <.2.2.i.p.k.k.k.i.w.g.g.q.f.2.} g.F.n.:.F.R.a.3.p.i.2.X.X.X.i.j.j.j.d.j.X.f.p.g.",
"7.C.M.m.n.M.C.b.v.v.h.h.g.g.g.g.] k.X.X._ <.2.> <.2.p.<.p.p.k.g.h.h.g.g.g.g.3.2.x.J.C.:.m.m.n.x.x.;.j.X.f.f.k.X.f.f.d.d.j...j.k.",
"n.^.C.a.T.3.J.J.N.v.h.h.g.f.i.i.A i.X.X._ 2.2.; <.<.Z.p.J.g.2.L.B.B.g.f.f.q.3.2.1.J.^.1.m.M.7.n.3.p.2.X.f.X.i.z.f.f.f.d.d.{ i.j.",
"6.6.7.m.a.C.b.x.B.k.g.f.f.2.2.X.h ..X...E 2.3.= 3.b.3.3.p.x.L.g.B.h.f.2.2.2.2.3.3.b.I.7.7.r.C.m.7.p.g.g.f.l.y.i.f.f.f.d.0.{ X.p.",
"6.3.#.:.3 n.F.A.h.g.i.2.2.X.X...j X.2...R 2.3.& 1.i ) 1.p.G.S.g.g.p.2.X...2.2.g.x.a.m.m.m.m.I.B @.: v.X.d.j.f.j.f.f.f.f.0.{ 2.i.",
"M.M.. R.B : A.p.g.f.2.X.X.X.2.2.P 2.2.2.( <.3.& - [.) {.^.G.v.g.i.i.i.2.X.2.p.v.x.C.C.:.M.!.7.3 ).3 = z.j.j.l.y.j.f.f.f.f.} i.i.",
"M.a.M.s u b.3.2.g.i.2.X.X.2.2.2.R 2...2._ 2.3.o M.v M :.3.A.g.g.i.i.i.2.X.<.2.x.x.n.T.#.M.).r.5.b x w.f.X.y.j.j.l.f.f.f.f.} 2.i.",
"6.7.m.) 1.a.p.G.p.2.X.X.X.2.2.<.R <...2._ p.a.& M.2 o m.b.n.G.g.2.i.X.X.X.<.2.p.x.a.I.#.M.M.R.!.+.O.w.2.l.j.y.l.j.f.X.X.2.} 2.p.",
"M.:.w Z ;.1.x.2.2.2.....X.2.2.<.R <...2._ p.b.- M.].H ).n.J.w.2.i.i...X.2.2.2.3.x.b.C.6.M.m.R.p 9 $.n.q.f.d.j.i.f.i.2.X.X.[ 2.p.",
"7.1.:.~ ;.J.3.2.2.2.X.X.X.X.....E ..i.i._ g.a.- s.'.@.s.b.J.g.2.2.2.X.X...2.p.2.g.p.x.J.C.m.C.#.F %.3.2.f.f.f.f.i.X.X.2...} 2.p.",
":.3.#.u 1.;.g.G.2.2.2.X.X.i.y.y.E y.i.i.I p.3.- s.'.F M.1.3.2.2.X.X.X.2.2.i.g.2.v.A.G.x.b.x.b.%.u ( g.h.f.X.X.f.X.X...i.<...2.2.",
"1.3.f w p.p.p.2.2.2.X.X.X.2.i.i.] p.j.g.P p.3.: M._.@.^.3.x.g.2...X.X.i.2.p.g.2.x.g.3.<.(.J.:.p S ;.g.g.q.X.X...X.X...2.2.2.2...",
";.x.=.3.2.2.p.g.2.X.X.X.X.i.i.p...k.j.p.E p.3.w 7.m.a.a.3.x.2.X.X.i.i.i.g.g.k.2.S.L.J.;.x.3.G.x.x.v.p.X.2.f.X...X.X...2.2.i.g.X.",
"p.;.3.3.2...i.} X.X.X.y.i.f.j.j.i.i.i.2.] 3.3.u M.6.J.3.p.g.g.f.i.j.i.j.g.h.h.2.x.v.x.` N.n.v.g.g.g.2.X.X.X.X.X.X.2.X.2.2.g.g.X.",
"p.<.g.<.i.X.i.f.i.i.i.j.j.j.j.p.X.2.2...} 2.3.w 7.7.3.x.x.2.f.2.f.f.j.g.g.k.h.<.L.J.G.[ g.w.g.g.3.i.2.X.X.X...X.X.i.i.i.f.g.g.X.",
"2.2.2.2...i.X.f.j.f.f.f.f.f.d.i.] 2.2.<.[ 3.3.u a.A.p.J.G.g.k.f.f.f.f.j.g.z.S.2.G.G.b.} w.N.v.g.g.i.X.X.y.y.X.y.y.f.j.j.f.f.g.X.",
"g.2.2.i.X.i.j.i.j.f.f.f.f.y.X.X.E i.2.<.( 3.3.q g.g.g.2.g.g.f.f.f.f.f.j.g.B.G.2.G.J.J.:.w.J.v.2...X.X.y.y.X.X.f.f.j.j.j.i.2.g.2.",
"2.2.X.2.i.j.j.j.f.f.y.X.X.X.X.2.P 2.2.2.I p.3.o 3.g.h.g.f.f.j.f.l.f.f.k.h.v.B.N.b.N.x.3.3.g.g.2.2.y.X.X.y.y.f.f.f.f.f.i.g.} i.2.",
"2.i.i.i.g.k.g.j.i.y.X.X.X.X.X.2.P 2.<.2.C 3.3.= g.g.g.g.j.f.j.j.f.f.g.h.g.g.N.N.J.J.v.3.3.g.g.2.2.y.y.i.i.f.j.j.j.f.f.i.j.} i.2.",
"p.p.g.g.g.g.f.i.X.X.X.X.X.X.y.y.E i.<.<.N 3.3.> g.g.g.f.f.f.j.j.f.f.g.h.g.g.n.n.V.x.x.>.g.3.g.2.X.y.i.f.j.j.j.j.f.f.f.2.f.{ 2.2.",
"x.g.g.p.p.i.2.X.X.X.X.X.X.X.X.X.] i...<.g 3.3., q.q.f.f.f.f.i.f.f.i.f.g.h.v.x.3.m.3.3.:.x.3.p.2.2.d.f.j.j.j.p.f.f.y.f.X.2.{ 2.p.",
"x.p.p.3.3.2.2.2.................] X...<.g 3.2.> q.q.0.0.X.y.i.i.f.i.f.g.g.g.w.,.C.7.7.:.x.3.p.2.X.d.q.f.f.i.i.i.i.X.X...| } <.p.",
"x.p.3.3.3.2.2.<.................{ ....2.d 2.2.9 2.0.X.X.y.y.i.i.X.f.f.2.2.3.3.,.C.7.7.:.a.3.p.i.X.0.X.2.2.2.i.i.X. .X...} } <.p.",
"7.3.3.3.3.2.<.} } } ..............X...2.a <.2.r 2.0.X.X.X.X.y.2.X.X.2.2.2.3.,.#.7.3.3.:.3.p.g.g.X.X.X.X.2.2.X.....{ ..} } } ;.p.",
":.:.3.3.3.3.;.[ } } ....} ........i.i.i.r 2.2.y 2.X.X.X.X.X.X.X.X.....<.3.w.:.! ,.3.3.3.p.g.p.2.X.X.X.X.X...} } } { } } { } } p.",
"3.;.3.x.3.;.} } { | ] | _ ....X...i.<.<.r ..i.r 2.X.X.X.X.X...} <.<.<.<.x.x.7./ e.3.3.2.p.3.p.<.2.X.X.X.{ { { } } { } { } { <.2.",
"3.` 3.3.;.;.;.! } [ ` <.2.] 2...] <.<.<.r <.2.q } <.<.| } { } } _ ;.3.;.;.:.3.%.3.:.3.2.3.2.3.<.2._ 2.[ _ } } _ } } } [ } R <.3.",
":.#.#.#.3 #.=.=.) ` ;.;.` q } <.E } } <.q | <.> } ;.;.} ` _ ` ` =.1.1.3.:.3.3.:.3.;.:.:.3.2.2.;.` , ) ` =.=.=.` =.) , ` =.[ ;.3.",
":.4.:.:.. ) G H =.) ` ) / = ;.;._ } } } ; | ;.q ;.[ ! C C Y ) ` ` #.` n.3.7.;.#.:.:.:.:.:.:.;.[ )   Z Y ~ ! #.=.) =.X =.) =.=.a.",
"#.#.:.#.X H B v c w s v G o ;._ _ } } { = { } u _ _ / ! S B v s u v G :.7.7.%.G :.;.:.:.;.;.} ` #.o ~ Z m v v i s Y - =.;.#.;.#.",
") #.#.#.: #.#.=.;.=.:.` ( - #.;.{ | } } = } _ u ( ` #.` ) @.:.1.1.:.:.H :.:.:.n :.:.:.:.=.=.` ` ! - ~ ) ) ~ ) ) ) Y o ) ;.;.;.#.",
") =.) ) - v w w : : 3 w s u ^ ` [ [ [ =.& ` ) u ) ) ~ Z c e 2 < 2 3 b v 4.4.4.v :.:.-.1.=.=.) ) @.i c i : & & : i s - ;.;.=.` ` ",
"` ( ` =.` ;.;.` #.` ` ` ` / ' ` =.[ ) =.X ) ~ i ) ) ~ ~ #.-.:.-.-.$.-.:.7.4.$.G -.:.-.1.@.=.) ) ) ~ ~ ) ) ` ` ) ` ;.` ` ` / :.( ",
"_ ^ _ _ { _ _ _ _ _ ' ' _ _ _ _ ^ ` ( ` = ( ( , ( ( / ` ` ` ` #.` :.#.:.:.%.#.Y #.=.;.=.` ) ) ( ( ( ( ( ( _ _ [ _ [ ] { { { _ W ",
"_ _ _ _ { _ _ _ _ _ _ ' _ _ _ _ C ! ! ! ; ( ! = ( ^ ^ ` _ _ _ / ` ;.%.;.:.;.%.~ #.=.=.` ) ( ( ( ! ! ( ( ^ ^ _ _ _ _ _ _ _ _ W R ",
"` ^ _ ` ` ^ / ^ / ` / ` ` / ( ! ) ` ~ ! w Y ` S ^ / ` ` _ _ _ ` ` %.#.#.#.#.@.~ @.#.` ) ! ! ! ! ! ( ) ` ` / ` / ` ` ` ^ ^ ^ ` ^ ",
"@.@.) @.@.) ) ) O.O.o.o.O.O.~ H T T T T b F ~ O.) ) ` ` ` ` ` #.$.$.O.O.O.O.O.O.O.@.@.o.~ T T T H H T o.o.o.~ ~ ~ ~ ~ ~ ~ ~ ~ ) ",
"* * @ $ @ $ $ $ $ $ $ $ $ % % # @ * * * * 8 1 @ $ $ $ $ $ $ * 1 * * * $ $ $ % * % * * * * * $ @ * * * 6 7 6 * 7 6 6 * * * * * * ",
"6 6 5 6 5 6 5 5 5 5 5 5 6 5 6 6 6 6 % % 6 7 6 * * % % 5 5 5 6 7 6 % 6 6 5 5 # 5 5 5 5 5 5 6 6 6 % # # 5 5 % % 6 5 5 5 6 6 6 6 6 ",
"oXoX.XoXoXoXXXoX XoXoXoX|.|.|.oX}.XXXX+XoX}.}.oXoXoXoXoXoXoXoXoXoXoXoXoXoXoX|.oX|.|.|.|.|.oXoXoX.X}.}..X.X}.}.oXoX}.}.oXoXoXoXoX",
" X X XoXXXoX X XW. X X X}.}.|.oX XOXoXXXXX+XOXoX X X.X.X.XoX.X.X}.W.}.}.}..X}.oX}.|.|.}.}..X.X}..X X X X X X X XoX X}. X X X}.}."
};
